<svg id="Capa_1" data-name="Capa 1" xmlns="http://www.w3.org/2000/svg" viewBox="0 0 256.15 268.88"><defs><style>.cls-1,.cls-3{fill:#e8bd4b;stroke:#e8bd4b;stroke-width:0.75px;}.cls-2{fill:#1d7186;stroke:#1d7186;}.cls-2,.cls-4,.cls-5{stroke-miterlimit:10;}.cls-3{stroke-linecap:round;stroke-linejoin:round;}.cls-4{fill:#7ebf40;stroke:#7ebf40;}.cls-5{fill:#239140;stroke:#239140;}</style></defs><title>tangram-manel</title><path class="cls-1" d="M277,56.3c0,28.47-22.14,40.8-40.8,40.8C213.55,97.1,197.1,80.5,197.1,58c0-25.3,19-40.64,40.17-40.64C261.63,17.4,277,34.64,277,56.3Z" transform="translate(-22.28 -15.63)"/><path class="cls-2" d="M275.55,145.73l-164.43-2.61a2.41,2.41,0,0,0-1.69,4.17l89.3,83.2a2.42,2.42,0,0,0,3.41-.12l75.14-80.58A2.42,2.42,0,0,0,275.55,145.73Z" transform="translate(-22.28 -15.63)"/><path class="cls-3" d="M78,18.66,74.08,56.88A2.4,2.4,0,0,1,71.44,59L26.05,54a2.41,2.41,0,0,1-1-4.44L74.34,16.38A2.41,2.41,0,0,1,78,18.66Z" transform="translate(-22.28 -15.63)"/><path class="cls-4" d="M85.66,19,79.47,79.08a2.41,2.41,0,0,0,.79,2L118,114.75a2.41,2.41,0,0,0,4-1.56l6.42-62.33a2.42,2.42,0,0,0-.86-2.11L89.59,17.39A2.41,2.41,0,0,0,85.66,19Z" transform="translate(-22.28 -15.63)"/><path class="cls-5" d="M104.12,152.43l136.4,127.4a2.41,2.41,0,0,1-1.65,4.17l-144.66-.43a2.41,2.41,0,0,1-2.4-2.57l8.26-127A2.41,2.41,0,0,1,104.12,152.43Z" transform="translate(-22.28 -15.63)"/><path class="cls-2" d="M89.87,151,24.39,211.77a2.4,2.4,0,0,0-.23,3.4L80.36,276a2.41,2.41,0,0,0,4.22-1.4L93.87,153A2.41,2.41,0,0,0,89.87,151Z" transform="translate(-22.28 -15.63)"/><path class="cls-4" d="M26.85,198.82,65.18,163.2a2.42,2.42,0,0,0,0-3.52l-38.36-33a2.41,2.41,0,0,0-4.06,1.63l0,68.67A2.41,2.41,0,0,0,26.85,198.82Z" transform="translate(-22.28 -15.63)"/><path class="cls-5" d="M25.33,111.93,73.1,85.69a2.41,2.41,0,0,1,3,.18l38.61,34.88a2.41,2.41,0,0,1-.11,3.67L73.23,154.84a2.41,2.41,0,0,1-3.23-.2l-45-39A2.41,2.41,0,0,1,25.33,111.93Z" transform="translate(-22.28 -15.63)"/></svg>